<svg width="495" height="465" viewBox="0 0 495 465" fill="none" xmlns="http://www.w3.org/2000/svg">
<g clip-path="url(#clip0_56_2)">
<path d="M460.633 456.288H21.1891C15.5713 456.282 10.1855 454.047 6.21312 450.075C2.24075 446.102 0.00631201 440.716 0 435.099V245.947C0.00638808 240.329 2.24084 234.943 6.21319 230.971C10.1855 226.998 15.5714 224.764 21.1891 224.757H460.633C466.251 224.764 471.637 226.998 475.609 230.971C479.581 234.943 481.816 240.329 481.822 245.947V435.099C481.816 440.716 479.581 446.102 475.609 450.075C471.637 454.047 466.251 456.282 460.633 456.288Z" fill="#F0F7EE"/>
<path d="M461.816 424.965C459.1 422.249 455.869 420.102 452.312 418.65C448.755 417.199 444.945 416.471 441.103 416.511L440.797 416.512C435.558 416.514 430.412 415.124 425.887 412.485L425.416 412.211L425.795 411.82C427.848 409.696 429.563 407.268 430.879 404.622C429.944 405.494 428.83 406.149 427.614 406.541C426.398 406.934 425.111 407.055 423.844 406.895C422.505 406.736 421.221 406.275 420.086 405.548C418.951 404.821 417.995 403.847 417.291 402.698C414.511 398.187 411.197 391.787 411.197 386.912C411.201 382.791 412.064 378.716 413.731 374.946C415.397 371.177 417.831 367.797 420.876 365.02C422.804 363.282 424.344 361.156 425.395 358.783C426.447 356.409 426.986 353.841 426.979 351.245L426.977 350.876C426.977 347.458 427.394 344.053 428.221 340.737L428.305 340.402L428.649 340.414C430.871 340.489 433.094 340.303 435.272 339.859C433.229 339.608 431.23 339.077 429.332 338.279L428.962 338.129L429.088 337.749C437.759 332.38 457.333 335.161 468.694 309.167C477.906 288.089 510.41 327.877 510.41 350.876C510.41 353.222 508.088 356.323 509.826 357.874C528.62 374.642 515.653 385.408 511.564 396.242C510.594 398.813 512.697 401.635 512.697 404.416C512.697 404.888 512.685 405.375 512.662 405.863L512.626 406.615L511.999 406.198C510.759 405.386 509.61 404.443 508.571 403.386C509.649 405.867 510.157 408.557 510.058 411.26C509.958 413.962 509.254 416.608 507.998 419.003C506.028 422.72 504.123 425.381 502.334 426.912C496.605 431.815 489.22 434.344 481.689 433.982C474.157 433.62 467.049 430.395 461.816 424.965H461.816Z" fill="#E6E6E6"/>
<path d="M493.281 480.892C493.409 480.891 493.533 480.845 493.63 480.761C493.726 480.677 493.789 480.561 493.807 480.434C495.199 468.021 495.283 455.496 494.056 443.066C492.219 423.456 486.318 395.211 468.643 372.015C468.601 371.959 468.548 371.912 468.487 371.877C468.427 371.842 468.36 371.819 468.291 371.81C468.222 371.8 468.151 371.805 468.084 371.823C468.016 371.84 467.953 371.871 467.897 371.914C467.841 371.956 467.795 372.009 467.76 372.069C467.724 372.13 467.702 372.197 467.692 372.266C467.683 372.335 467.687 372.406 467.705 372.473C467.723 372.541 467.754 372.604 467.796 372.66C485.319 395.656 491.171 423.694 492.996 443.165C494.216 455.512 494.135 467.954 492.753 480.284C492.743 480.36 492.748 480.437 492.77 480.51C492.792 480.583 492.829 480.651 492.879 480.708C492.929 480.766 492.991 480.812 493.06 480.844C493.129 480.875 493.205 480.892 493.281 480.892V480.892Z" fill="#3F3D56"/>
<path d="M478.857 404.735C478.97 404.735 479.079 404.699 479.17 404.633C479.261 404.567 479.329 404.474 479.364 404.367C479.399 404.26 479.399 404.145 479.364 404.038C479.329 403.931 479.262 403.838 479.171 403.772C474.134 400.363 468.694 397.593 462.974 395.527C454.038 392.255 440.449 389.289 426.46 393.741C426.393 393.763 426.331 393.797 426.278 393.842C426.225 393.887 426.181 393.942 426.148 394.004C426.116 394.066 426.097 394.134 426.091 394.204C426.085 394.273 426.093 394.343 426.114 394.41C426.135 394.477 426.169 394.538 426.214 394.592C426.259 394.645 426.315 394.689 426.377 394.721C426.439 394.754 426.507 394.773 426.576 394.779C426.646 394.785 426.716 394.777 426.783 394.756C440.485 390.395 453.828 393.312 462.608 396.526C468.236 398.558 473.589 401.281 478.545 404.633C478.636 404.699 478.745 404.735 478.857 404.735V404.735Z" fill="#3F3D56"/>
<path d="M503.221 344.054C503.229 343.942 503.201 343.83 503.142 343.735C503.083 343.639 502.995 343.565 502.89 343.522C502.786 343.48 502.671 343.472 502.562 343.498C502.453 343.525 502.355 343.586 502.283 343.672C498.52 348.45 495.366 353.677 492.893 359.233C488.986 367.911 485.049 381.251 488.483 395.525C488.499 395.593 488.528 395.657 488.569 395.714C488.61 395.77 488.662 395.819 488.722 395.855C488.781 395.892 488.848 395.916 488.917 395.927C488.986 395.938 489.057 395.936 489.125 395.919C489.193 395.903 489.257 395.873 489.314 395.832C489.37 395.791 489.418 395.739 489.455 395.679C489.491 395.619 489.516 395.553 489.526 395.484C489.537 395.414 489.534 395.344 489.518 395.276C486.155 381.294 490.025 368.197 493.863 359.671C496.295 354.203 499.396 349.06 503.097 344.358C503.169 344.273 503.212 344.166 503.221 344.054Z" fill="#3F3D56"/>
<path d="M341.598 273.602H319.998C318.937 273.602 317.919 273.181 317.169 272.431C316.419 271.68 315.998 270.663 315.998 269.602C315.998 268.541 316.419 267.524 317.169 266.774C317.919 266.023 318.937 265.602 319.998 265.602H341.598C342.658 265.602 343.676 266.023 344.426 266.774C345.176 267.524 345.598 268.541 345.598 269.602C345.598 270.663 345.176 271.68 344.426 272.431C343.676 273.181 342.658 273.602 341.598 273.602Z" fill="#EF6D58"/>
<path d="M397.597 357.389H263.998C262.937 357.389 261.92 356.967 261.17 356.217C260.42 355.467 259.998 354.449 259.998 353.389C259.998 352.328 260.42 351.31 261.17 350.56C261.92 349.81 262.937 349.388 263.998 349.388H397.597C398.658 349.388 399.676 349.81 400.426 350.56C401.176 351.31 401.597 352.328 401.597 353.389C401.597 354.449 401.176 355.467 400.426 356.217C399.676 356.967 398.658 357.389 397.597 357.389Z" fill="#E6E6E6"/>
<path d="M397.597 383.789H263.998C262.937 383.789 261.92 383.367 261.17 382.617C260.42 381.867 259.998 380.85 259.998 379.789C259.998 378.728 260.42 377.71 261.17 376.96C261.92 376.21 262.937 375.789 263.998 375.789H397.597C398.658 375.789 399.676 376.21 400.426 376.96C401.176 377.71 401.597 378.728 401.597 379.789C401.597 380.85 401.176 381.867 400.426 382.617C399.676 383.367 398.658 383.789 397.597 383.789Z" fill="#E6E6E6"/>
<path d="M397.597 410.189H263.998C262.937 410.189 261.92 409.767 261.17 409.017C260.42 408.267 259.998 407.25 259.998 406.189C259.998 405.128 260.42 404.111 261.17 403.36C261.92 402.61 262.937 402.189 263.998 402.189H397.597C398.658 402.189 399.676 402.61 400.426 403.36C401.176 404.111 401.597 405.128 401.597 406.189C401.597 407.25 401.176 408.267 400.426 409.017C399.676 409.767 398.658 410.189 397.597 410.189Z" fill="#E6E6E6"/>
<path d="M370.29 285.604H291.307C287.46 285.607 283.772 287.136 281.052 289.855C278.331 292.574 276.8 296.262 276.795 300.108V323.892C276.8 327.74 278.33 331.428 281.051 334.148C283.771 336.869 287.459 338.399 291.307 338.404H370.29C374.137 338.399 377.824 336.868 380.543 334.147C383.262 331.427 384.791 327.739 384.794 323.892V300.108C384.791 296.262 383.261 292.575 380.542 289.856C377.823 287.137 374.136 285.607 370.29 285.604ZM383.194 323.892C383.194 327.317 381.834 330.601 379.412 333.022C376.991 335.444 373.707 336.804 370.282 336.804H313.584C304.251 336.804 295.301 333.097 288.702 326.497C282.102 319.898 278.395 310.947 278.395 301.614V300.108C278.4 296.686 279.763 293.406 282.183 290.987C284.604 288.568 287.885 287.207 291.307 287.204H370.29C373.711 287.208 376.991 288.568 379.411 290.987C381.83 293.407 383.19 296.687 383.194 300.108V323.892Z" fill="#E6E6E6"/>
<path d="M331.682 320.588C339.193 320.588 345.282 314.499 345.282 306.988C345.282 299.477 339.193 293.388 331.682 293.388C324.171 293.388 318.083 299.477 318.083 306.988C318.083 314.499 324.171 320.588 331.682 320.588Z" fill="#E6E6E6"/>
<path d="M362.97 338.404L302.083 338.188L321.282 333.388L323.674 325.492L342.082 325.388L347.594 333.196L361.514 336.804L362.778 337.132L362.97 338.404Z" fill="#E6E6E6"/>
<path d="M323.953 315.671C326.872 313.39 322.882 303.355 327.702 305.497C327.702 305.497 333.592 301.749 334.775 304.212C336.146 307.064 341.019 305.77 344.013 304.763C343.777 304.217 343.61 303.643 343.515 303.055C344.067 303.491 344.653 303.883 345.266 304.228C345.677 304.008 346.041 303.71 346.337 303.35C346.629 303.015 346.811 302.6 346.86 302.158C346.909 301.717 346.822 301.271 346.61 300.881C346.112 300.115 345.084 299.88 344.478 299.2C344.409 299.104 344.363 298.993 344.345 298.876C344.328 298.758 344.339 298.639 344.378 298.527C344.45 298.253 344.461 297.967 344.41 297.689C344.359 297.411 344.247 297.147 344.082 296.917C343.918 296.687 343.704 296.496 343.457 296.357C343.21 296.219 342.936 296.137 342.654 296.117C342.54 296.12 342.428 296.096 342.326 296.046C341.818 295.735 341.349 295.364 340.928 294.942C341.63 294.975 340.772 290.681 333.817 291.494C332.066 291.43 331.151 293.361 329.427 293.666C325.248 291.278 321.517 294.723 319.701 298.016C317.886 301.309 315.921 311.923 323.953 315.671Z" fill="#E6E6E6"/>
<path d="M127.452 450.534L138.864 450.533L144.292 406.515L127.45 406.517L127.452 450.534Z" fill="#A0616A"/>
<path d="M127.05 462.439L162.143 462.437V461.993C162.142 458.371 160.703 454.897 158.142 452.335C155.58 449.774 152.106 448.335 148.484 448.335H148.483L142.073 443.471L130.113 448.335L127.05 448.335L127.05 462.439Z" fill="#2F2E41"/>
<path d="M133.873 404.429L124.596 411.075L94.5449 378.458L108.236 368.648L133.873 404.429Z" fill="#A0616A"/>
<path d="M141.133 413.872L112.608 434.312L112.349 433.951C110.24 431.006 109.386 427.344 109.976 423.77C110.566 420.196 112.552 417.003 115.496 414.892L115.497 414.892L117.875 407.205L130.429 404.192L132.919 402.408L141.133 413.872Z" fill="#2F2E41"/>
<path d="M91.0843 200.133C91.0843 200.133 20.3342 276.261 32.5715 298.577C44.8088 320.892 103.836 397.196 103.836 397.196L120.018 378.615C106.418 346.344 91.7835 318.139 74.7113 299.527L124.181 262.981C124.181 262.981 127.821 323.477 124.827 332.982C121.832 342.488 116.793 337.449 121.832 342.488C126.871 347.527 129.412 348.452 126.702 351.588C123.991 354.725 122.042 426.183 122.042 426.183H145.32C145.32 426.183 167.043 294.536 165.673 289.718C164.302 284.9 165.088 287.109 165.055 280.965C165.022 274.822 174.956 224.492 174.956 224.492L91.0843 200.133Z" fill="#2F2E41"/>
<path d="M139.108 57.6196L116.793 59.0593L102.15 77.8137L77.7851 96.3804L93.2439 143.429C93.2439 143.429 92.4826 167.473 89.881 170.494C87.2794 173.515 82.9603 169.916 87.2794 176.395C89.9125 180.5 91.4034 185.233 91.5984 190.107C91.5984 190.107 66.9875 210.588 75.7619 215.987C84.5363 221.385 102.259 207.348 111.326 215.627C120.392 223.905 180.62 240.575 180.859 228.944C181.097 217.313 165.82 126.492 165.82 126.492L169.341 82.8144L149.186 69.1372L139.108 57.6196Z" fill="#3F3D56"/>
<path d="M103.787 241.134L96.2227 218.364L82.6123 220.87L91.4661 244.66C90.9278 246.054 90.789 247.57 91.0653 249.039C91.3415 250.507 92.0219 251.869 93.03 252.972C94.038 254.075 95.3337 254.875 96.7714 255.282C98.2092 255.689 99.7319 255.687 101.168 255.276C102.605 254.865 103.898 254.061 104.903 252.955C105.908 251.849 106.584 250.485 106.857 249.016C107.129 247.547 106.985 246.031 106.443 244.638C105.901 243.246 104.981 242.032 103.787 241.134H103.787Z" fill="#A0616A"/>
<path d="M83.6596 92.716L83.3008 92.8655C79.9636 94.2571 77.0159 96.4412 74.7128 99.2287C72.4098 102.016 70.8209 105.323 70.0836 108.863C68.1544 118.097 66.2563 131.452 67.757 143.958C70.4074 166.046 64.976 175.764 68.5099 182.832C72.0438 189.9 72.9273 187.249 72.0438 192.55C71.1603 197.851 66.7429 193.434 71.1603 200.502C75.5777 207.57 78.2281 205.803 76.4612 209.337C74.6943 212.871 72.0438 212.871 75.5777 217.288C79.1116 221.705 79.1116 223.472 79.9951 225.239C80.8786 227.006 83.529 240.259 83.529 240.259C83.529 240.259 97.6646 235.841 105.616 237.608C105.616 237.608 98.548 225.239 100.315 222.589C102.082 219.939 104.732 219.055 102.082 216.405C99.4315 213.754 95.0141 214.638 99.4315 211.987C103.849 209.337 100.236 155.519 100.236 155.519L83.6596 92.716Z" fill="#3F3D56"/>
<path d="M200.795 214.717L195.632 191.285L208.605 186.468L213.183 211.436C214.359 212.357 215.254 213.589 215.769 214.992C216.284 216.394 216.397 217.913 216.096 219.376C215.795 220.84 215.091 222.191 214.065 223.276C213.038 224.362 211.729 225.14 210.285 225.523C208.841 225.905 207.318 225.877 205.889 225.442C204.459 225.007 203.18 224.181 202.194 223.059C201.208 221.936 200.554 220.56 200.307 219.087C200.06 217.613 200.229 216.1 200.795 214.717V214.717Z" fill="#A0616A"/>
<path d="M148.264 73.2417L148.649 73.1864C152.228 72.6728 155.879 73.0393 159.284 74.2542C162.69 75.4691 165.748 77.4958 168.194 80.1587C174.579 87.1021 183.049 97.6018 188.164 109.112C197.197 129.441 200.656 138.693 201.24 146.574C201.824 154.454 199.708 152.63 203.181 156.731C206.655 160.832 208.187 154.775 208.012 163.108C207.837 171.441 204.655 171.281 207.983 173.412C211.31 175.542 213.587 174.185 212.813 179.789C212.04 185.393 212.945 186.911 213.091 188.881C213.237 190.851 217.746 203.591 217.746 203.591C217.746 203.591 203.343 207.035 197.418 212.625C197.418 212.625 197.155 198.381 194.28 197.01C191.405 195.638 188.676 196.236 189.595 192.602C190.515 188.969 194.761 187.465 189.61 187.451C184.458 187.436 153.505 120.966 153.505 120.966L148.264 73.2417Z" fill="#3F3D56"/>
<path d="M126.665 55.3065C139.639 55.3065 150.157 44.7888 150.157 31.8146C150.157 18.8404 139.639 8.32272 126.665 8.32272C113.691 8.32272 103.174 18.8404 103.174 31.8146C103.174 44.7888 113.691 55.3065 126.665 55.3065Z" fill="#A0616A"/>
<path d="M154.047 24.1812C151.634 25.2815 150.071 33.25 148.174 31.3975C146.278 29.545 146.404 27.1342 143.847 26.4505C141.782 25.8961 139.56 26.5297 137.677 27.5291C137.341 27.7055 137.015 27.8972 136.697 28.0879C136.487 27.9478 136.278 27.8159 136.054 27.6942C134.37 26.7927 132.403 26.5715 130.561 27.0763C132.017 27.564 133.283 28.4972 134.18 29.7438C133.549 30.1662 132.911 30.5898 132.258 30.965C126.802 34.1136 119.038 27.2672 113.295 24.6952C116.893 31.4456 115.121 34.2412 111.998 41.2226L111.89 41.6201C112.068 39.8704 106.653 38.5664 106.967 41.0295C107.516 43.5241 108.384 45.9374 109.551 48.2095C103.513 41.2279 99.3871 32.6842 100.258 23.8707C100.447 22.0192 100.39 20.0658 101.345 18.4588C102.301 16.8601 104.294 15.7383 106.057 16.3479C105.908 13.5372 106.523 10.7385 107.837 8.24946C109.151 5.76037 111.115 3.67392 113.52 2.2119C115.925 0.749883 118.682 -0.0330425 121.496 -0.0536445C124.311 -0.0742466 127.078 0.668243 129.505 2.09489C131.759 3.41783 133.641 5.28889 135.708 6.90283C137.774 8.51675 140.156 9.92357 142.776 10.0568C144.439 10.137 146.248 9.73115 147.676 10.5921C149.33 11.5911 149.613 13.6826 149.861 15.6952C148.386 15.8406 146.987 16.4227 145.844 17.367C147.371 17.2113 148.908 17.5409 150.236 18.309C150.261 18.3205 150.285 18.3341 150.308 18.3499C151.183 21.6761 151.093 22.4134 154.047 24.1812Z" fill="#2F2E41"/>
<path d="M71.0886 438.593C70.6286 438.614 70.1732 438.494 69.7841 438.247C69.395 438.001 69.0911 437.641 68.9134 437.216C68.7358 436.791 68.693 436.322 68.7909 435.872C68.8889 435.422 69.1227 435.013 69.4609 434.7L69.6148 434.089C69.5945 434.04 69.5741 433.991 69.5536 433.942C69.0902 432.847 68.3137 431.914 67.3215 431.259C66.3294 430.604 65.1659 430.257 63.9772 430.262C62.7886 430.266 61.6277 430.622 60.6404 431.284C59.6532 431.946 58.8836 432.885 58.4283 433.983C56.6087 438.366 54.2921 442.756 53.7216 447.389C53.4704 449.438 53.5764 451.514 54.0348 453.526C49.7611 444.203 47.5419 434.07 47.5276 423.815C47.5267 421.241 47.6697 418.67 47.9559 416.112C48.1924 414.015 48.5205 411.934 48.9403 409.867C51.2309 398.652 56.149 388.141 63.2907 379.197C66.7472 377.311 69.5426 374.41 71.3001 370.887C71.9368 369.62 72.3868 368.268 72.6361 366.872C72.2462 366.923 71.1659 360.985 71.4599 360.621C70.9166 359.796 69.9439 359.386 69.3505 358.582C66.399 354.58 62.3325 355.279 60.2097 360.717C55.6748 363.005 55.6309 366.801 58.4135 370.452C60.1838 372.775 60.427 375.917 61.9803 378.404C61.8205 378.609 61.6543 378.807 61.4945 379.011C58.5733 382.768 56.0272 386.801 53.8928 391.054C54.4118 386.29 53.7923 381.47 52.0852 376.991C50.3551 372.818 47.1122 369.302 44.2565 365.694C40.8263 361.36 33.7923 363.251 33.188 368.746C33.1821 368.799 33.1764 368.852 33.1708 368.905C33.595 369.144 34.0102 369.398 34.4165 369.667C34.9268 370.008 35.3223 370.495 35.5511 371.065C35.7798 371.634 35.8312 372.26 35.6984 372.859C35.5656 373.458 35.2549 374.004 34.807 374.423C34.3591 374.843 33.7949 375.118 33.1882 375.211L33.1261 375.221C33.2772 376.749 33.5443 378.265 33.9251 379.753C30.2615 393.921 38.1709 399.081 49.4644 399.313C49.7138 399.441 49.9567 399.569 50.206 399.69C48.0616 405.768 46.7165 412.098 46.2045 418.522C45.9147 422.312 45.9318 426.119 46.2557 429.907L46.2365 429.772C45.4182 425.561 43.1716 421.761 39.8762 419.014C34.9817 414.993 28.0666 413.513 22.7863 410.281C22.2251 409.921 21.5726 409.728 20.9057 409.727C20.2388 409.725 19.5854 409.914 19.0225 410.272C18.4595 410.629 18.0106 411.14 17.7286 411.745C17.4466 412.349 17.3433 413.021 17.4309 413.682C17.438 413.73 17.4452 413.777 17.4525 413.824C18.2397 414.144 19.0061 414.514 19.7473 414.929C20.1715 415.169 20.5867 415.423 20.9929 415.691C21.5033 416.032 21.8988 416.52 22.1275 417.089C22.3562 417.659 22.4076 418.284 22.2748 418.883C22.142 419.483 21.8314 420.028 21.3835 420.448C20.9356 420.867 20.3713 421.142 19.7647 421.235L19.7025 421.245C19.6578 421.251 19.6194 421.258 19.5747 421.264C20.9197 424.476 22.8073 427.431 25.155 430.002C27.4458 442.371 37.2846 443.544 47.8089 439.942H47.8153C48.97 444.96 50.6431 449.845 52.8076 454.517H70.6417C70.7057 454.319 70.7632 454.114 70.8208 453.916C69.17 454.02 67.5127 453.921 65.886 453.622C67.2092 451.998 68.5323 450.362 69.8555 448.738C69.885 448.708 69.9128 448.676 69.9386 448.642C70.6098 447.811 71.2874 446.987 71.9586 446.156L71.9589 446.155C71.9947 443.607 71.7024 441.066 71.0892 438.594L71.0886 438.593Z" fill="#F2F2F2"/>
<path d="M426.158 210.723C437.955 210.723 447.518 201.159 447.518 189.362C447.518 177.565 437.955 168.001 426.158 168.001C414.361 168.001 404.797 177.565 404.797 189.362C404.797 201.159 414.361 210.723 426.158 210.723Z" fill="#F0F7EE"/>
<path d="M457.597 178.401C456.714 178.401 455.997 179.119 455.997 180.001V204.802C455.997 205.684 456.714 206.402 457.597 206.402C458.479 206.402 459.197 205.684 459.197 204.802V180.001C459.197 179.119 458.479 178.401 457.597 178.401V178.401Z" fill="#3F3D56"/>
<path d="M393.804 192.28H340.137C338.296 192.28 336.798 190.782 336.798 188.941C336.798 187.099 338.296 185.601 340.137 185.601H393.804C395.646 185.601 397.144 187.099 397.144 188.941C397.144 190.782 395.646 192.28 393.804 192.28Z" fill="#F0F7EE"/>
<path d="M393.287 203.582H297.737C295.896 203.582 294.398 202.084 294.398 200.242C294.398 198.401 295.896 196.903 297.737 196.903H393.287C395.128 196.903 396.626 198.401 396.626 200.242C396.626 202.084 395.128 203.582 393.287 203.582Z" fill="#F0F7EE"/>
</g>
<defs>
<clipPath id="clip0_56_2">
<rect width="494.416" height="464.288" fill="white"/>
</clipPath>
</defs>
</svg>
