<svg width="582" height="572" viewBox="0 0 582 572" fill="none" xmlns="http://www.w3.org/2000/svg">
<path d="M290.5 508C413.383 508 513 408.383 513 285.5C513 162.617 413.383 63 290.5 63C167.617 63 68 162.617 68 285.5C68 408.383 167.617 508 290.5 508Z" fill="#F2F2F2"/>
<path d="M479.165 267.666C479.167 294.259 473.931 320.591 463.755 345.16C453.579 369.729 438.663 392.053 419.859 410.857C401.054 429.661 378.73 444.576 354.161 454.752C329.591 464.927 303.258 470.164 276.665 470.162C252.962 470.148 229.443 466.003 207.165 457.912C172.33 445.222 141.645 423.218 118.449 394.297C95.2539 365.376 80.4375 330.646 75.6132 293.888C70.7889 257.129 76.1416 219.752 91.0886 185.825C106.036 151.898 130.004 122.722 160.384 101.473C190.764 80.2244 226.392 67.7171 263.388 65.3132C300.384 62.9093 337.331 70.7009 370.206 87.8397C403.08 104.978 430.623 130.808 449.835 162.515C469.047 194.222 479.192 230.592 479.165 267.666Z" fill="white"/>
<path d="M232.5 263C267.018 263 295 235.018 295 200.5C295 165.982 267.018 138 232.5 138C197.982 138 170 165.982 170 200.5C170 235.018 197.982 263 232.5 263Z" fill="#E4E4E4"/>
<path d="M478.6 205.696C465.054 212.212 449.614 213.629 435.109 209.687C420.604 205.744 408.005 196.706 399.622 184.23C391.239 171.753 387.634 156.674 389.466 141.755C391.299 126.836 398.447 113.077 409.6 103C442.745 129.201 466.87 165.108 478.6 205.696Z" fill="#F2F2F2"/>
<path d="M366.5 331C378.926 331 389 320.926 389 308.5C389 296.074 378.926 286 366.5 286C354.074 286 344 296.074 344 308.5C344 320.926 354.074 331 366.5 331Z" fill="#E4E4E4"/>
<path d="M255.5 464.5C255.498 466.476 255.238 468.442 254.725 470.35C239.796 468.482 225.127 464.926 211 459.75C212.173 454.321 215.313 449.518 219.814 446.265C224.316 443.011 229.862 441.538 235.385 442.127C240.907 442.717 246.017 445.328 249.731 449.458C253.444 453.588 255.499 458.946 255.5 464.5Z" fill="#F2F2F2"/>
<path d="M113 275.375C112.999 286.79 108.66 297.778 100.862 306.115C93.0641 314.451 82.3896 319.513 71 320.275C65.8448 290.558 67.3476 260.066 75.4001 231C85.9047 232.751 95.4478 238.172 102.332 246.297C109.217 254.422 112.997 264.725 113 275.375Z" fill="#F2F2F2"/>
</svg>
